<mxfile host="app.diagrams.net" agent="Mozilla/5.0 (Windows NT 10.0; Win64; x64) AppleWebKit/537.36 (KHTML, like Gecko) Chrome/128.0.0.0 Safari/537.36 OPR/114.0.0.0 (Edition MSI)" version="24.8.3">
  <diagram name="Страница — 1" id="cEEBNCXO_071sVtuZjaE">
    <mxGraphModel dx="2342" dy="859" grid="1" gridSize="10" guides="1" tooltips="1" connect="1" arrows="1" fold="1" page="1" pageScale="1" pageWidth="827" pageHeight="1169" math="0" shadow="0">
      <root>
        <mxCell id="0" />
        <mxCell id="1" parent="0" />
        <mxCell id="hyupav42TEDSfNcGKgU3-1" value="&lt;h2&gt;&lt;br&gt;&lt;/h2&gt;" style="rounded=0;whiteSpace=wrap;html=1;fillStyle=auto;fillColor=none;strokeColor=#000000;gradientColor=#000000;" vertex="1" parent="1">
          <mxGeometry x="220" y="10" width="290" height="350" as="geometry" />
        </mxCell>
        <mxCell id="hyupav42TEDSfNcGKgU3-5" value="" style="endArrow=none;html=1;rounded=0;entryX=0;entryY=0.25;entryDx=0;entryDy=0;exitX=1;exitY=0.25;exitDx=0;exitDy=0;" edge="1" parent="1" source="hyupav42TEDSfNcGKgU3-1" target="hyupav42TEDSfNcGKgU3-1">
          <mxGeometry width="50" height="50" relative="1" as="geometry">
            <mxPoint x="364" y="120" as="sourcePoint" />
            <mxPoint x="414" y="70" as="targetPoint" />
          </mxGeometry>
        </mxCell>
        <mxCell id="hyupav42TEDSfNcGKgU3-9" value="Game" style="text;html=1;align=center;verticalAlign=middle;whiteSpace=wrap;rounded=0;fontFamily=Helvetica;fontSize=22;" vertex="1" parent="1">
          <mxGeometry x="330" y="30" width="60" height="40" as="geometry" />
        </mxCell>
        <mxCell id="hyupav42TEDSfNcGKgU3-12" value="" style="endArrow=none;html=1;rounded=0;" edge="1" parent="1">
          <mxGeometry width="50" height="50" relative="1" as="geometry">
            <mxPoint x="220" y="209" as="sourcePoint" />
            <mxPoint x="510" y="209" as="targetPoint" />
            <Array as="points" />
          </mxGeometry>
        </mxCell>
        <mxCell id="hyupav42TEDSfNcGKgU3-13" value="-String gameld" style="text;html=1;align=center;verticalAlign=middle;whiteSpace=wrap;rounded=0;fontSize=22;" vertex="1" parent="1">
          <mxGeometry x="210" y="110" width="190" height="30" as="geometry" />
        </mxCell>
        <mxCell id="hyupav42TEDSfNcGKgU3-14" value="-List players" style="text;html=1;align=center;verticalAlign=middle;whiteSpace=wrap;rounded=0;fontSize=22;" vertex="1" parent="1">
          <mxGeometry x="190" y="150" width="200" height="30" as="geometry" />
        </mxCell>
        <mxCell id="hyupav42TEDSfNcGKgU3-16" value="+startGame()" style="text;html=1;align=center;verticalAlign=middle;whiteSpace=wrap;rounded=0;fontSize=22;" vertex="1" parent="1">
          <mxGeometry x="220" y="220" width="150" height="30" as="geometry" />
        </mxCell>
        <mxCell id="hyupav42TEDSfNcGKgU3-18" value="+endGame()" style="text;html=1;align=center;verticalAlign=middle;whiteSpace=wrap;rounded=0;fontSize=22;" vertex="1" parent="1">
          <mxGeometry x="222.5" y="260" width="137.5" height="30" as="geometry" />
        </mxCell>
        <mxCell id="hyupav42TEDSfNcGKgU3-19" value="+getWinner : Player" style="text;html=1;align=center;verticalAlign=middle;whiteSpace=wrap;rounded=0;fontSize=22;" vertex="1" parent="1">
          <mxGeometry x="222.5" y="300" width="207.5" height="30" as="geometry" />
        </mxCell>
        <mxCell id="hyupav42TEDSfNcGKgU3-20" value="" style="endArrow=none;html=1;rounded=0;" edge="1" parent="1">
          <mxGeometry width="50" height="50" relative="1" as="geometry">
            <mxPoint x="170" y="410" as="sourcePoint" />
            <mxPoint x="220" y="360" as="targetPoint" />
          </mxGeometry>
        </mxCell>
        <mxCell id="hyupav42TEDSfNcGKgU3-21" value="" style="endArrow=none;html=1;rounded=0;" edge="1" parent="1">
          <mxGeometry width="50" height="50" relative="1" as="geometry">
            <mxPoint x="560" y="410" as="sourcePoint" />
            <mxPoint x="510" y="360" as="targetPoint" />
          </mxGeometry>
        </mxCell>
        <mxCell id="hyupav42TEDSfNcGKgU3-22" value="has" style="text;html=1;align=center;verticalAlign=middle;whiteSpace=wrap;rounded=0;fontSize=22;" vertex="1" parent="1">
          <mxGeometry x="130" y="410" width="70" height="30" as="geometry" />
        </mxCell>
        <mxCell id="hyupav42TEDSfNcGKgU3-23" value="contains" style="text;html=1;align=center;verticalAlign=middle;whiteSpace=wrap;rounded=0;fontSize=22;" vertex="1" parent="1">
          <mxGeometry x="500" y="410" width="130" height="30" as="geometry" />
        </mxCell>
        <mxCell id="hyupav42TEDSfNcGKgU3-25" value="" style="endArrow=classic;html=1;rounded=0;" edge="1" parent="1">
          <mxGeometry width="50" height="50" relative="1" as="geometry">
            <mxPoint x="160" y="450" as="sourcePoint" />
            <mxPoint x="160" y="500" as="targetPoint" />
          </mxGeometry>
        </mxCell>
        <mxCell id="hyupav42TEDSfNcGKgU3-26" value="" style="endArrow=classic;html=1;rounded=0;" edge="1" parent="1">
          <mxGeometry width="50" height="50" relative="1" as="geometry">
            <mxPoint x="560" y="450" as="sourcePoint" />
            <mxPoint x="560" y="500" as="targetPoint" />
          </mxGeometry>
        </mxCell>
        <mxCell id="hyupav42TEDSfNcGKgU3-27" value="" style="rounded=0;whiteSpace=wrap;html=1;fillColor=none;" vertex="1" parent="1">
          <mxGeometry x="20" y="510" width="290" height="280" as="geometry" />
        </mxCell>
        <mxCell id="hyupav42TEDSfNcGKgU3-29" value="" style="endArrow=none;html=1;rounded=0;" edge="1" parent="1">
          <mxGeometry width="50" height="50" relative="1" as="geometry">
            <mxPoint x="21" y="590" as="sourcePoint" />
            <mxPoint x="310" y="590" as="targetPoint" />
          </mxGeometry>
        </mxCell>
        <mxCell id="hyupav42TEDSfNcGKgU3-30" value="" style="endArrow=none;html=1;rounded=0;" edge="1" parent="1">
          <mxGeometry width="50" height="50" relative="1" as="geometry">
            <mxPoint x="19" y="690" as="sourcePoint" />
            <mxPoint x="311" y="690" as="targetPoint" />
          </mxGeometry>
        </mxCell>
        <mxCell id="hyupav42TEDSfNcGKgU3-31" value="Player" style="text;html=1;align=center;verticalAlign=middle;whiteSpace=wrap;rounded=0;fontSize=22;" vertex="1" parent="1">
          <mxGeometry x="100" y="530" width="110" height="30" as="geometry" />
        </mxCell>
        <mxCell id="hyupav42TEDSfNcGKgU3-32" value="-String playerld" style="text;html=1;align=center;verticalAlign=middle;whiteSpace=wrap;rounded=0;fontSize=22;" vertex="1" parent="1">
          <mxGeometry x="10" y="600" width="180" height="30" as="geometry" />
        </mxCell>
        <mxCell id="hyupav42TEDSfNcGKgU3-33" value="-String name" style="text;html=1;align=center;verticalAlign=middle;whiteSpace=wrap;rounded=0;fontSize=22;" vertex="1" parent="1">
          <mxGeometry x="20" y="640" width="140" height="30" as="geometry" />
        </mxCell>
        <mxCell id="hyupav42TEDSfNcGKgU3-35" value="+makeMove" style="text;html=1;align=center;verticalAlign=middle;whiteSpace=wrap;rounded=0;fontSize=22;" vertex="1" parent="1">
          <mxGeometry x="-80" y="700" width="330" height="30" as="geometry" />
        </mxCell>
        <mxCell id="hyupav42TEDSfNcGKgU3-37" value="+getScore() : int" style="text;html=1;align=center;verticalAlign=middle;whiteSpace=wrap;rounded=0;fontSize=22;" vertex="1" parent="1">
          <mxGeometry x="-20" y="740" width="250" height="30" as="geometry" />
        </mxCell>
        <mxCell id="hyupav42TEDSfNcGKgU3-38" value="" style="rounded=0;whiteSpace=wrap;html=1;fillColor=none;" vertex="1" parent="1">
          <mxGeometry x="400" y="510" width="330" height="270" as="geometry" />
        </mxCell>
        <mxCell id="hyupav42TEDSfNcGKgU3-39" value="" style="endArrow=none;html=1;rounded=0;" edge="1" parent="1">
          <mxGeometry width="50" height="50" relative="1" as="geometry">
            <mxPoint x="400" y="580" as="sourcePoint" />
            <mxPoint x="730" y="580" as="targetPoint" />
          </mxGeometry>
        </mxCell>
        <mxCell id="hyupav42TEDSfNcGKgU3-40" value="" style="endArrow=none;html=1;rounded=0;" edge="1" parent="1" target="hyupav42TEDSfNcGKgU3-38">
          <mxGeometry width="50" height="50" relative="1" as="geometry">
            <mxPoint x="400" y="650" as="sourcePoint" />
            <mxPoint x="450" y="600" as="targetPoint" />
            <Array as="points">
              <mxPoint x="730" y="650" />
            </Array>
          </mxGeometry>
        </mxCell>
        <mxCell id="hyupav42TEDSfNcGKgU3-43" value="Board" style="text;html=1;align=center;verticalAlign=middle;whiteSpace=wrap;rounded=0;fontSize=22;" vertex="1" parent="1">
          <mxGeometry x="460" y="530" width="200" height="30" as="geometry" />
        </mxCell>
        <mxCell id="hyupav42TEDSfNcGKgU3-44" value="-Square[ ] [ ] squares" style="text;html=1;align=center;verticalAlign=middle;whiteSpace=wrap;rounded=0;fontSize=22;" vertex="1" parent="1">
          <mxGeometry x="340" y="600" width="340" height="30" as="geometry" />
        </mxCell>
        <mxCell id="hyupav42TEDSfNcGKgU3-45" value="+initializeBoard()" style="text;html=1;align=center;verticalAlign=middle;whiteSpace=wrap;rounded=0;fontSize=22;" vertex="1" parent="1">
          <mxGeometry x="380" y="660" width="220" height="30" as="geometry" />
        </mxCell>
        <mxCell id="hyupav42TEDSfNcGKgU3-46" value="+updateBoard" style="text;html=1;align=center;verticalAlign=middle;whiteSpace=wrap;rounded=0;fontSize=22;" vertex="1" parent="1">
          <mxGeometry x="390" y="700" width="170" height="30" as="geometry" />
        </mxCell>
        <mxCell id="hyupav42TEDSfNcGKgU3-48" value="+isFull() : bool" style="text;html=1;align=center;verticalAlign=middle;whiteSpace=wrap;rounded=0;fontSize=22;" vertex="1" parent="1">
          <mxGeometry x="372.5" y="740" width="205" height="30" as="geometry" />
        </mxCell>
        <mxCell id="hyupav42TEDSfNcGKgU3-49" value="" style="endArrow=none;html=1;rounded=0;" edge="1" parent="1">
          <mxGeometry width="50" height="50" relative="1" as="geometry">
            <mxPoint x="160" y="850" as="sourcePoint" />
            <mxPoint x="160" y="800" as="targetPoint" />
          </mxGeometry>
        </mxCell>
        <mxCell id="hyupav42TEDSfNcGKgU3-50" value="makes" style="text;html=1;align=center;verticalAlign=middle;whiteSpace=wrap;rounded=0;fontSize=22;" vertex="1" parent="1">
          <mxGeometry x="111.25" y="850" width="98.75" height="30" as="geometry" />
        </mxCell>
        <mxCell id="hyupav42TEDSfNcGKgU3-51" value="" style="endArrow=classic;html=1;rounded=0;" edge="1" parent="1">
          <mxGeometry width="50" height="50" relative="1" as="geometry">
            <mxPoint x="160" y="890" as="sourcePoint" />
            <mxPoint x="160" y="930" as="targetPoint" />
          </mxGeometry>
        </mxCell>
        <mxCell id="hyupav42TEDSfNcGKgU3-53" value="" style="rounded=0;whiteSpace=wrap;html=1;fillColor=none;" vertex="1" parent="1">
          <mxGeometry x="78.12" y="940" width="165" height="180" as="geometry" />
        </mxCell>
        <mxCell id="hyupav42TEDSfNcGKgU3-54" value="" style="endArrow=none;html=1;rounded=0;exitX=0.001;exitY=0.298;exitDx=0;exitDy=0;exitPerimeter=0;entryX=1.005;entryY=0.298;entryDx=0;entryDy=0;entryPerimeter=0;" edge="1" parent="1" source="hyupav42TEDSfNcGKgU3-53" target="hyupav42TEDSfNcGKgU3-53">
          <mxGeometry width="50" height="50" relative="1" as="geometry">
            <mxPoint x="100" y="1000" as="sourcePoint" />
            <mxPoint x="240" y="1000" as="targetPoint" />
          </mxGeometry>
        </mxCell>
        <mxCell id="hyupav42TEDSfNcGKgU3-55" value="Move" style="text;html=1;align=center;verticalAlign=middle;whiteSpace=wrap;rounded=0;fontSize=22;" vertex="1" parent="1">
          <mxGeometry x="110" y="950" width="100" height="30" as="geometry" />
        </mxCell>
        <mxCell id="hyupav42TEDSfNcGKgU3-56" value="-int x" style="text;html=1;align=center;verticalAlign=middle;whiteSpace=wrap;rounded=0;fontSize=22;" vertex="1" parent="1">
          <mxGeometry x="78.12" y="1000" width="70" height="30" as="geometry" />
        </mxCell>
        <mxCell id="hyupav42TEDSfNcGKgU3-57" value="-int y" style="text;html=1;align=center;verticalAlign=middle;whiteSpace=wrap;rounded=0;fontSize=22;" vertex="1" parent="1">
          <mxGeometry x="58.120000000000005" y="1040" width="110" height="30" as="geometry" />
        </mxCell>
        <mxCell id="hyupav42TEDSfNcGKgU3-58" value="-Player" style="text;html=1;align=center;verticalAlign=middle;whiteSpace=wrap;rounded=0;fontSize=22;" vertex="1" parent="1">
          <mxGeometry x="78.12" y="1080" width="90" height="30" as="geometry" />
        </mxCell>
        <mxCell id="hyupav42TEDSfNcGKgU3-59" value="" style="endArrow=none;html=1;rounded=0;" edge="1" parent="1">
          <mxGeometry width="50" height="50" relative="1" as="geometry">
            <mxPoint x="570" y="850" as="sourcePoint" />
            <mxPoint x="570" y="800" as="targetPoint" />
          </mxGeometry>
        </mxCell>
        <mxCell id="hyupav42TEDSfNcGKgU3-60" value="consists of" style="text;html=1;align=center;verticalAlign=middle;whiteSpace=wrap;rounded=0;fontSize=22;" vertex="1" parent="1">
          <mxGeometry x="510" y="850" width="120" height="30" as="geometry" />
        </mxCell>
        <mxCell id="hyupav42TEDSfNcGKgU3-62" value="" style="endArrow=classic;html=1;rounded=0;" edge="1" parent="1">
          <mxGeometry width="50" height="50" relative="1" as="geometry">
            <mxPoint x="570" y="890" as="sourcePoint" />
            <mxPoint x="570" y="930" as="targetPoint" />
          </mxGeometry>
        </mxCell>
        <mxCell id="hyupav42TEDSfNcGKgU3-64" value="" style="rounded=0;whiteSpace=wrap;html=1;fillColor=none;" vertex="1" parent="1">
          <mxGeometry x="447.5" y="940" width="245" height="180" as="geometry" />
        </mxCell>
        <mxCell id="hyupav42TEDSfNcGKgU3-65" value="" style="endArrow=none;html=1;rounded=0;entryX=0.999;entryY=0.333;entryDx=0;entryDy=0;entryPerimeter=0;" edge="1" parent="1" target="hyupav42TEDSfNcGKgU3-64">
          <mxGeometry width="50" height="50" relative="1" as="geometry">
            <mxPoint x="447.5" y="1000" as="sourcePoint" />
            <mxPoint x="497.5" y="950" as="targetPoint" />
          </mxGeometry>
        </mxCell>
        <mxCell id="hyupav42TEDSfNcGKgU3-66" value="" style="endArrow=none;html=1;rounded=0;entryX=1.009;entryY=0.662;entryDx=0;entryDy=0;entryPerimeter=0;" edge="1" parent="1" target="hyupav42TEDSfNcGKgU3-64">
          <mxGeometry width="50" height="50" relative="1" as="geometry">
            <mxPoint x="447.5" y="1060" as="sourcePoint" />
            <mxPoint x="497.5" y="1010" as="targetPoint" />
          </mxGeometry>
        </mxCell>
        <mxCell id="hyupav42TEDSfNcGKgU3-67" value="Square" style="text;html=1;align=center;verticalAlign=middle;whiteSpace=wrap;rounded=0;fontSize=22;" vertex="1" parent="1">
          <mxGeometry x="495" y="950" width="140" height="30" as="geometry" />
        </mxCell>
        <mxCell id="hyupav42TEDSfNcGKgU3-68" value="-String state" style="text;html=1;align=center;verticalAlign=middle;whiteSpace=wrap;rounded=0;fontSize=22;" vertex="1" parent="1">
          <mxGeometry x="450" y="1010" width="130" height="30" as="geometry" />
        </mxCell>
        <mxCell id="hyupav42TEDSfNcGKgU3-69" value="+isOccupied() : bool" style="text;html=1;align=center;verticalAlign=middle;whiteSpace=wrap;rounded=0;fontSize=22;" vertex="1" parent="1">
          <mxGeometry x="440" y="1070" width="220" height="30" as="geometry" />
        </mxCell>
      </root>
    </mxGraphModel>
  </diagram>
</mxfile>
